<mxfile host="app.diagrams.net" modified="2022-10-04T16:56:34.887Z" agent="5.0 (Windows)" etag="OFL8Zge6EZ93Zk-PF9AY" version="20.4.0" type="github">
  <diagram id="C5RBs43oDa-KdzZeNtuy" name="Page-1">
    <mxGraphModel dx="813" dy="405" grid="1" gridSize="10" guides="1" tooltips="1" connect="1" arrows="1" fold="1" page="1" pageScale="1" pageWidth="827" pageHeight="1169" math="0" shadow="0">
      <root>
        <mxCell id="WIyWlLk6GJQsqaUBKTNV-0" />
        <mxCell id="WIyWlLk6GJQsqaUBKTNV-1" parent="WIyWlLk6GJQsqaUBKTNV-0" />
        <mxCell id="q5D6j6xeGx_qTIoaIWEf-14" value="" style="edgeStyle=orthogonalEdgeStyle;rounded=0;orthogonalLoop=1;jettySize=auto;html=1;" edge="1" parent="WIyWlLk6GJQsqaUBKTNV-1" source="q5D6j6xeGx_qTIoaIWEf-0" target="q5D6j6xeGx_qTIoaIWEf-1">
          <mxGeometry relative="1" as="geometry" />
        </mxCell>
        <mxCell id="q5D6j6xeGx_qTIoaIWEf-0" value="1" style="ellipse;whiteSpace=wrap;html=1;aspect=fixed;" vertex="1" parent="WIyWlLk6GJQsqaUBKTNV-1">
          <mxGeometry x="90" y="140" width="40" height="40" as="geometry" />
        </mxCell>
        <mxCell id="q5D6j6xeGx_qTIoaIWEf-17" value="" style="edgeStyle=orthogonalEdgeStyle;rounded=0;orthogonalLoop=1;jettySize=auto;html=1;" edge="1" parent="WIyWlLk6GJQsqaUBKTNV-1" source="q5D6j6xeGx_qTIoaIWEf-1" target="q5D6j6xeGx_qTIoaIWEf-3">
          <mxGeometry relative="1" as="geometry" />
        </mxCell>
        <mxCell id="q5D6j6xeGx_qTIoaIWEf-1" value="2" style="ellipse;whiteSpace=wrap;html=1;aspect=fixed;" vertex="1" parent="WIyWlLk6GJQsqaUBKTNV-1">
          <mxGeometry x="170" y="140" width="40" height="40" as="geometry" />
        </mxCell>
        <mxCell id="q5D6j6xeGx_qTIoaIWEf-18" value="" style="edgeStyle=orthogonalEdgeStyle;rounded=0;orthogonalLoop=1;jettySize=auto;html=1;" edge="1" parent="WIyWlLk6GJQsqaUBKTNV-1" source="q5D6j6xeGx_qTIoaIWEf-3" target="q5D6j6xeGx_qTIoaIWEf-6">
          <mxGeometry relative="1" as="geometry" />
        </mxCell>
        <mxCell id="q5D6j6xeGx_qTIoaIWEf-3" value="4" style="ellipse;whiteSpace=wrap;html=1;aspect=fixed;" vertex="1" parent="WIyWlLk6GJQsqaUBKTNV-1">
          <mxGeometry x="250" y="140" width="40" height="40" as="geometry" />
        </mxCell>
        <mxCell id="q5D6j6xeGx_qTIoaIWEf-22" value="" style="edgeStyle=orthogonalEdgeStyle;rounded=0;orthogonalLoop=1;jettySize=auto;html=1;" edge="1" parent="WIyWlLk6GJQsqaUBKTNV-1" source="q5D6j6xeGx_qTIoaIWEf-4" target="q5D6j6xeGx_qTIoaIWEf-8">
          <mxGeometry relative="1" as="geometry" />
        </mxCell>
        <mxCell id="q5D6j6xeGx_qTIoaIWEf-4" value="5" style="ellipse;whiteSpace=wrap;html=1;aspect=fixed;" vertex="1" parent="WIyWlLk6GJQsqaUBKTNV-1">
          <mxGeometry x="250" y="220" width="40" height="40" as="geometry" />
        </mxCell>
        <mxCell id="q5D6j6xeGx_qTIoaIWEf-21" value="" style="edgeStyle=orthogonalEdgeStyle;rounded=0;orthogonalLoop=1;jettySize=auto;html=1;" edge="1" parent="WIyWlLk6GJQsqaUBKTNV-1" source="q5D6j6xeGx_qTIoaIWEf-5" target="q5D6j6xeGx_qTIoaIWEf-7">
          <mxGeometry relative="1" as="geometry" />
        </mxCell>
        <mxCell id="q5D6j6xeGx_qTIoaIWEf-5" value="3" style="ellipse;whiteSpace=wrap;html=1;aspect=fixed;" vertex="1" parent="WIyWlLk6GJQsqaUBKTNV-1">
          <mxGeometry x="250" y="60" width="40" height="40" as="geometry" />
        </mxCell>
        <mxCell id="q5D6j6xeGx_qTIoaIWEf-19" value="" style="edgeStyle=orthogonalEdgeStyle;rounded=0;orthogonalLoop=1;jettySize=auto;html=1;" edge="1" parent="WIyWlLk6GJQsqaUBKTNV-1" source="q5D6j6xeGx_qTIoaIWEf-6" target="q5D6j6xeGx_qTIoaIWEf-9">
          <mxGeometry relative="1" as="geometry" />
        </mxCell>
        <mxCell id="q5D6j6xeGx_qTIoaIWEf-6" value="6" style="ellipse;whiteSpace=wrap;html=1;aspect=fixed;" vertex="1" parent="WIyWlLk6GJQsqaUBKTNV-1">
          <mxGeometry x="330" y="140" width="40" height="40" as="geometry" />
        </mxCell>
        <mxCell id="q5D6j6xeGx_qTIoaIWEf-7" value="8" style="ellipse;whiteSpace=wrap;html=1;aspect=fixed;" vertex="1" parent="WIyWlLk6GJQsqaUBKTNV-1">
          <mxGeometry x="330" y="60" width="40" height="40" as="geometry" />
        </mxCell>
        <mxCell id="q5D6j6xeGx_qTIoaIWEf-8" value="7" style="ellipse;whiteSpace=wrap;html=1;aspect=fixed;" vertex="1" parent="WIyWlLk6GJQsqaUBKTNV-1">
          <mxGeometry x="330" y="220" width="40" height="40" as="geometry" />
        </mxCell>
        <mxCell id="q5D6j6xeGx_qTIoaIWEf-9" value="9" style="ellipse;whiteSpace=wrap;html=1;aspect=fixed;" vertex="1" parent="WIyWlLk6GJQsqaUBKTNV-1">
          <mxGeometry x="410" y="140" width="40" height="40" as="geometry" />
        </mxCell>
        <mxCell id="q5D6j6xeGx_qTIoaIWEf-10" value="10" style="ellipse;whiteSpace=wrap;html=1;aspect=fixed;" vertex="1" parent="WIyWlLk6GJQsqaUBKTNV-1">
          <mxGeometry x="490" y="60" width="40" height="40" as="geometry" />
        </mxCell>
        <mxCell id="q5D6j6xeGx_qTIoaIWEf-11" value="11" style="ellipse;whiteSpace=wrap;html=1;aspect=fixed;" vertex="1" parent="WIyWlLk6GJQsqaUBKTNV-1">
          <mxGeometry x="490" y="220" width="40" height="40" as="geometry" />
        </mxCell>
        <mxCell id="q5D6j6xeGx_qTIoaIWEf-23" value="" style="edgeStyle=orthogonalEdgeStyle;rounded=0;orthogonalLoop=1;jettySize=auto;html=1;" edge="1" parent="WIyWlLk6GJQsqaUBKTNV-1" source="q5D6j6xeGx_qTIoaIWEf-12" target="q5D6j6xeGx_qTIoaIWEf-13">
          <mxGeometry relative="1" as="geometry" />
        </mxCell>
        <mxCell id="q5D6j6xeGx_qTIoaIWEf-12" value="12" style="ellipse;whiteSpace=wrap;html=1;aspect=fixed;" vertex="1" parent="WIyWlLk6GJQsqaUBKTNV-1">
          <mxGeometry x="570" y="140" width="40" height="40" as="geometry" />
        </mxCell>
        <mxCell id="q5D6j6xeGx_qTIoaIWEf-13" value="13" style="ellipse;whiteSpace=wrap;html=1;aspect=fixed;" vertex="1" parent="WIyWlLk6GJQsqaUBKTNV-1">
          <mxGeometry x="650" y="140" width="40" height="40" as="geometry" />
        </mxCell>
        <mxCell id="q5D6j6xeGx_qTIoaIWEf-15" value="" style="endArrow=classic;html=1;rounded=0;" edge="1" parent="WIyWlLk6GJQsqaUBKTNV-1">
          <mxGeometry width="50" height="50" relative="1" as="geometry">
            <mxPoint x="200" y="140" as="sourcePoint" />
            <mxPoint x="250" y="90" as="targetPoint" />
          </mxGeometry>
        </mxCell>
        <mxCell id="q5D6j6xeGx_qTIoaIWEf-16" value="" style="endArrow=classic;html=1;rounded=0;exitX=0.75;exitY=1.025;exitDx=0;exitDy=0;exitPerimeter=0;" edge="1" parent="WIyWlLk6GJQsqaUBKTNV-1" source="q5D6j6xeGx_qTIoaIWEf-1">
          <mxGeometry width="50" height="50" relative="1" as="geometry">
            <mxPoint x="200" y="290" as="sourcePoint" />
            <mxPoint x="250" y="240" as="targetPoint" />
          </mxGeometry>
        </mxCell>
        <mxCell id="q5D6j6xeGx_qTIoaIWEf-20" value="" style="endArrow=classic;html=1;rounded=0;" edge="1" parent="WIyWlLk6GJQsqaUBKTNV-1" target="q5D6j6xeGx_qTIoaIWEf-7">
          <mxGeometry width="50" height="50" relative="1" as="geometry">
            <mxPoint x="280" y="220" as="sourcePoint" />
            <mxPoint x="330" y="170" as="targetPoint" />
          </mxGeometry>
        </mxCell>
        <mxCell id="q5D6j6xeGx_qTIoaIWEf-24" value="" style="endArrow=classic;html=1;rounded=0;entryX=0;entryY=1;entryDx=0;entryDy=0;" edge="1" parent="WIyWlLk6GJQsqaUBKTNV-1" target="q5D6j6xeGx_qTIoaIWEf-9">
          <mxGeometry width="50" height="50" relative="1" as="geometry">
            <mxPoint x="370" y="240" as="sourcePoint" />
            <mxPoint x="424" y="190" as="targetPoint" />
          </mxGeometry>
        </mxCell>
        <mxCell id="q5D6j6xeGx_qTIoaIWEf-25" value="" style="endArrow=classic;html=1;rounded=0;exitX=1;exitY=0.5;exitDx=0;exitDy=0;entryX=0;entryY=0;entryDx=0;entryDy=0;" edge="1" parent="WIyWlLk6GJQsqaUBKTNV-1" source="q5D6j6xeGx_qTIoaIWEf-7" target="q5D6j6xeGx_qTIoaIWEf-9">
          <mxGeometry width="50" height="50" relative="1" as="geometry">
            <mxPoint x="390" y="130" as="sourcePoint" />
            <mxPoint x="440" y="80" as="targetPoint" />
          </mxGeometry>
        </mxCell>
        <mxCell id="q5D6j6xeGx_qTIoaIWEf-26" value="" style="endArrow=classic;html=1;rounded=0;exitX=1;exitY=1;exitDx=0;exitDy=0;entryX=0;entryY=0;entryDx=0;entryDy=0;" edge="1" parent="WIyWlLk6GJQsqaUBKTNV-1" source="q5D6j6xeGx_qTIoaIWEf-3" target="q5D6j6xeGx_qTIoaIWEf-8">
          <mxGeometry width="50" height="50" relative="1" as="geometry">
            <mxPoint x="310" y="230" as="sourcePoint" />
            <mxPoint x="360" y="180" as="targetPoint" />
          </mxGeometry>
        </mxCell>
        <mxCell id="q5D6j6xeGx_qTIoaIWEf-27" value="" style="endArrow=classic;html=1;rounded=0;entryX=0;entryY=0.5;entryDx=0;entryDy=0;" edge="1" parent="WIyWlLk6GJQsqaUBKTNV-1" target="q5D6j6xeGx_qTIoaIWEf-10">
          <mxGeometry width="50" height="50" relative="1" as="geometry">
            <mxPoint x="440" y="140" as="sourcePoint" />
            <mxPoint x="490" y="90" as="targetPoint" />
          </mxGeometry>
        </mxCell>
        <mxCell id="q5D6j6xeGx_qTIoaIWEf-28" value="" style="endArrow=classic;html=1;rounded=0;exitX=1;exitY=0.5;exitDx=0;exitDy=0;entryX=0;entryY=1;entryDx=0;entryDy=0;" edge="1" parent="WIyWlLk6GJQsqaUBKTNV-1" source="q5D6j6xeGx_qTIoaIWEf-11" target="q5D6j6xeGx_qTIoaIWEf-12">
          <mxGeometry width="50" height="50" relative="1" as="geometry">
            <mxPoint x="530" y="220" as="sourcePoint" />
            <mxPoint x="570" y="180" as="targetPoint" />
          </mxGeometry>
        </mxCell>
        <mxCell id="q5D6j6xeGx_qTIoaIWEf-29" value="" style="endArrow=classic;html=1;rounded=0;entryX=0;entryY=0.5;entryDx=0;entryDy=0;" edge="1" parent="WIyWlLk6GJQsqaUBKTNV-1" target="q5D6j6xeGx_qTIoaIWEf-11">
          <mxGeometry width="50" height="50" relative="1" as="geometry">
            <mxPoint x="440" y="180" as="sourcePoint" />
            <mxPoint x="490" y="130" as="targetPoint" />
          </mxGeometry>
        </mxCell>
        <mxCell id="q5D6j6xeGx_qTIoaIWEf-30" value="" style="endArrow=classic;html=1;rounded=0;entryX=0;entryY=0;entryDx=0;entryDy=0;exitX=1;exitY=0.5;exitDx=0;exitDy=0;" edge="1" parent="WIyWlLk6GJQsqaUBKTNV-1" source="q5D6j6xeGx_qTIoaIWEf-10" target="q5D6j6xeGx_qTIoaIWEf-12">
          <mxGeometry width="50" height="50" relative="1" as="geometry">
            <mxPoint x="560" y="110" as="sourcePoint" />
            <mxPoint x="610" y="60" as="targetPoint" />
          </mxGeometry>
        </mxCell>
        <mxCell id="q5D6j6xeGx_qTIoaIWEf-31" value="&lt;font style=&quot;font-size: 9px;&quot;&gt;0 + 0 = 0&lt;/font&gt;" style="text;html=1;resizable=0;autosize=1;align=center;verticalAlign=middle;points=[];fillColor=none;strokeColor=none;rounded=0;" vertex="1" parent="WIyWlLk6GJQsqaUBKTNV-1">
          <mxGeometry x="115" y="120" width="60" height="30" as="geometry" />
        </mxCell>
        <mxCell id="q5D6j6xeGx_qTIoaIWEf-32" value="&lt;font style=&quot;font-size: 9px;&quot;&gt;0 + 57 = 57&lt;/font&gt;" style="text;html=1;resizable=0;autosize=1;align=center;verticalAlign=middle;points=[];fillColor=none;strokeColor=none;rounded=0;fontSize=8;rotation=-45;" vertex="1" parent="WIyWlLk6GJQsqaUBKTNV-1">
          <mxGeometry x="175" y="90" width="70" height="20" as="geometry" />
        </mxCell>
        <mxCell id="q5D6j6xeGx_qTIoaIWEf-33" value="&lt;font style=&quot;font-size: 9px;&quot;&gt;0 + 57 = 57&lt;/font&gt;" style="text;html=1;resizable=0;autosize=1;align=center;verticalAlign=middle;points=[];fillColor=none;strokeColor=none;rounded=0;fontSize=8;rotation=50;" vertex="1" parent="WIyWlLk6GJQsqaUBKTNV-1">
          <mxGeometry x="165" y="210" width="70" height="20" as="geometry" />
        </mxCell>
        <mxCell id="q5D6j6xeGx_qTIoaIWEf-34" value="&lt;font style=&quot;font-size: 9px;&quot;&gt;57 + 24 = 81&lt;/font&gt;" style="text;html=1;resizable=0;autosize=1;align=center;verticalAlign=middle;points=[];fillColor=none;strokeColor=none;rounded=0;fontSize=8;" vertex="1" parent="WIyWlLk6GJQsqaUBKTNV-1">
          <mxGeometry x="275" y="130" width="80" height="20" as="geometry" />
        </mxCell>
        <mxCell id="q5D6j6xeGx_qTIoaIWEf-35" value="&lt;font style=&quot;font-size: 9px;&quot;&gt;max(57+32, 57 + 18) = 89&lt;/font&gt;" style="text;html=1;resizable=0;autosize=1;align=center;verticalAlign=middle;points=[];fillColor=none;strokeColor=none;rounded=0;fontSize=8;" vertex="1" parent="WIyWlLk6GJQsqaUBKTNV-1">
          <mxGeometry x="240" y="40" width="130" height="20" as="geometry" />
        </mxCell>
        <mxCell id="q5D6j6xeGx_qTIoaIWEf-36" value="&lt;font style=&quot;font-size: 9px;&quot;&gt;max(57+24, 57 + 18) = 81&lt;/font&gt;" style="text;html=1;resizable=0;autosize=1;align=center;verticalAlign=middle;points=[];fillColor=none;strokeColor=none;rounded=0;fontSize=8;" vertex="1" parent="WIyWlLk6GJQsqaUBKTNV-1">
          <mxGeometry x="240" y="260" width="130" height="20" as="geometry" />
        </mxCell>
        <mxCell id="q5D6j6xeGx_qTIoaIWEf-37" value="&lt;div&gt;max(89 + 59, 81 + 28&lt;/div&gt;&lt;div&gt;, 81 + 21) = 89&lt;/div&gt;" style="text;html=1;resizable=0;autosize=1;align=center;verticalAlign=middle;points=[];fillColor=none;strokeColor=none;rounded=0;fontSize=9;rotation=55;" vertex="1" parent="WIyWlLk6GJQsqaUBKTNV-1">
          <mxGeometry x="350" y="80" width="110" height="40" as="geometry" />
        </mxCell>
        <mxCell id="q5D6j6xeGx_qTIoaIWEf-38" value="148 + 24 = 172" style="text;html=1;resizable=0;autosize=1;align=center;verticalAlign=middle;points=[];fillColor=none;strokeColor=none;rounded=0;fontSize=9;rotation=-50;" vertex="1" parent="WIyWlLk6GJQsqaUBKTNV-1">
          <mxGeometry x="420" y="60" width="90" height="20" as="geometry" />
        </mxCell>
        <mxCell id="q5D6j6xeGx_qTIoaIWEf-40" value="148 + 24 = 172" style="text;html=1;resizable=0;autosize=1;align=center;verticalAlign=middle;points=[];fillColor=none;strokeColor=none;rounded=0;fontSize=9;rotation=45;" vertex="1" parent="WIyWlLk6GJQsqaUBKTNV-1">
          <mxGeometry x="410" y="230" width="90" height="20" as="geometry" />
        </mxCell>
        <mxCell id="q5D6j6xeGx_qTIoaIWEf-41" value="&lt;div&gt;max(172 + 35, 172 + 27) &lt;br&gt;&lt;/div&gt;&lt;div&gt;= 207&lt;br&gt;&lt;/div&gt;" style="text;html=1;resizable=0;autosize=1;align=center;verticalAlign=middle;points=[];fillColor=none;strokeColor=none;rounded=0;fontSize=9;rotation=45;" vertex="1" parent="WIyWlLk6GJQsqaUBKTNV-1">
          <mxGeometry x="510" y="70" width="130" height="40" as="geometry" />
        </mxCell>
        <mxCell id="q5D6j6xeGx_qTIoaIWEf-42" value="207 + 6 = 213" style="text;html=1;resizable=0;autosize=1;align=center;verticalAlign=middle;points=[];fillColor=none;strokeColor=none;rounded=0;fontSize=9;" vertex="1" parent="WIyWlLk6GJQsqaUBKTNV-1">
          <mxGeometry x="590" y="180" width="80" height="20" as="geometry" />
        </mxCell>
        <mxCell id="q5D6j6xeGx_qTIoaIWEf-43" value="" style="edgeStyle=orthogonalEdgeStyle;rounded=0;orthogonalLoop=1;jettySize=auto;html=1;" edge="1" parent="WIyWlLk6GJQsqaUBKTNV-1" source="q5D6j6xeGx_qTIoaIWEf-44" target="q5D6j6xeGx_qTIoaIWEf-46">
          <mxGeometry relative="1" as="geometry" />
        </mxCell>
        <mxCell id="q5D6j6xeGx_qTIoaIWEf-44" value="1" style="ellipse;whiteSpace=wrap;html=1;aspect=fixed;" vertex="1" parent="WIyWlLk6GJQsqaUBKTNV-1">
          <mxGeometry x="105" y="530" width="40" height="40" as="geometry" />
        </mxCell>
        <mxCell id="q5D6j6xeGx_qTIoaIWEf-45" value="" style="edgeStyle=orthogonalEdgeStyle;rounded=0;orthogonalLoop=1;jettySize=auto;html=1;" edge="1" parent="WIyWlLk6GJQsqaUBKTNV-1" source="q5D6j6xeGx_qTIoaIWEf-46" target="q5D6j6xeGx_qTIoaIWEf-48">
          <mxGeometry relative="1" as="geometry" />
        </mxCell>
        <mxCell id="q5D6j6xeGx_qTIoaIWEf-46" value="2" style="ellipse;whiteSpace=wrap;html=1;aspect=fixed;" vertex="1" parent="WIyWlLk6GJQsqaUBKTNV-1">
          <mxGeometry x="185" y="530" width="40" height="40" as="geometry" />
        </mxCell>
        <mxCell id="q5D6j6xeGx_qTIoaIWEf-47" value="" style="edgeStyle=orthogonalEdgeStyle;rounded=0;orthogonalLoop=1;jettySize=auto;html=1;" edge="1" parent="WIyWlLk6GJQsqaUBKTNV-1" source="q5D6j6xeGx_qTIoaIWEf-48" target="q5D6j6xeGx_qTIoaIWEf-54">
          <mxGeometry relative="1" as="geometry" />
        </mxCell>
        <mxCell id="q5D6j6xeGx_qTIoaIWEf-48" value="4" style="ellipse;whiteSpace=wrap;html=1;aspect=fixed;" vertex="1" parent="WIyWlLk6GJQsqaUBKTNV-1">
          <mxGeometry x="265" y="530" width="40" height="40" as="geometry" />
        </mxCell>
        <mxCell id="q5D6j6xeGx_qTIoaIWEf-49" value="" style="edgeStyle=orthogonalEdgeStyle;rounded=0;orthogonalLoop=1;jettySize=auto;html=1;" edge="1" parent="WIyWlLk6GJQsqaUBKTNV-1" source="q5D6j6xeGx_qTIoaIWEf-50" target="q5D6j6xeGx_qTIoaIWEf-56">
          <mxGeometry relative="1" as="geometry" />
        </mxCell>
        <mxCell id="q5D6j6xeGx_qTIoaIWEf-50" value="5" style="ellipse;whiteSpace=wrap;html=1;aspect=fixed;" vertex="1" parent="WIyWlLk6GJQsqaUBKTNV-1">
          <mxGeometry x="265" y="610" width="40" height="40" as="geometry" />
        </mxCell>
        <mxCell id="q5D6j6xeGx_qTIoaIWEf-51" value="" style="edgeStyle=orthogonalEdgeStyle;rounded=0;orthogonalLoop=1;jettySize=auto;html=1;" edge="1" parent="WIyWlLk6GJQsqaUBKTNV-1" source="q5D6j6xeGx_qTIoaIWEf-52" target="q5D6j6xeGx_qTIoaIWEf-55">
          <mxGeometry relative="1" as="geometry" />
        </mxCell>
        <mxCell id="q5D6j6xeGx_qTIoaIWEf-52" value="3" style="ellipse;whiteSpace=wrap;html=1;aspect=fixed;" vertex="1" parent="WIyWlLk6GJQsqaUBKTNV-1">
          <mxGeometry x="265" y="450" width="40" height="40" as="geometry" />
        </mxCell>
        <mxCell id="q5D6j6xeGx_qTIoaIWEf-53" value="" style="edgeStyle=orthogonalEdgeStyle;rounded=0;orthogonalLoop=1;jettySize=auto;html=1;" edge="1" parent="WIyWlLk6GJQsqaUBKTNV-1" source="q5D6j6xeGx_qTIoaIWEf-54" target="q5D6j6xeGx_qTIoaIWEf-57">
          <mxGeometry relative="1" as="geometry" />
        </mxCell>
        <mxCell id="q5D6j6xeGx_qTIoaIWEf-54" value="6" style="ellipse;whiteSpace=wrap;html=1;aspect=fixed;" vertex="1" parent="WIyWlLk6GJQsqaUBKTNV-1">
          <mxGeometry x="345" y="530" width="40" height="40" as="geometry" />
        </mxCell>
        <mxCell id="q5D6j6xeGx_qTIoaIWEf-55" value="8" style="ellipse;whiteSpace=wrap;html=1;aspect=fixed;" vertex="1" parent="WIyWlLk6GJQsqaUBKTNV-1">
          <mxGeometry x="345" y="450" width="40" height="40" as="geometry" />
        </mxCell>
        <mxCell id="q5D6j6xeGx_qTIoaIWEf-56" value="7" style="ellipse;whiteSpace=wrap;html=1;aspect=fixed;" vertex="1" parent="WIyWlLk6GJQsqaUBKTNV-1">
          <mxGeometry x="345" y="610" width="40" height="40" as="geometry" />
        </mxCell>
        <mxCell id="q5D6j6xeGx_qTIoaIWEf-57" value="9" style="ellipse;whiteSpace=wrap;html=1;aspect=fixed;" vertex="1" parent="WIyWlLk6GJQsqaUBKTNV-1">
          <mxGeometry x="425" y="530" width="40" height="40" as="geometry" />
        </mxCell>
        <mxCell id="q5D6j6xeGx_qTIoaIWEf-58" value="10" style="ellipse;whiteSpace=wrap;html=1;aspect=fixed;" vertex="1" parent="WIyWlLk6GJQsqaUBKTNV-1">
          <mxGeometry x="505" y="450" width="40" height="40" as="geometry" />
        </mxCell>
        <mxCell id="q5D6j6xeGx_qTIoaIWEf-59" value="11" style="ellipse;whiteSpace=wrap;html=1;aspect=fixed;" vertex="1" parent="WIyWlLk6GJQsqaUBKTNV-1">
          <mxGeometry x="505" y="610" width="40" height="40" as="geometry" />
        </mxCell>
        <mxCell id="q5D6j6xeGx_qTIoaIWEf-60" value="" style="edgeStyle=orthogonalEdgeStyle;rounded=0;orthogonalLoop=1;jettySize=auto;html=1;" edge="1" parent="WIyWlLk6GJQsqaUBKTNV-1" source="q5D6j6xeGx_qTIoaIWEf-61" target="q5D6j6xeGx_qTIoaIWEf-62">
          <mxGeometry relative="1" as="geometry" />
        </mxCell>
        <mxCell id="q5D6j6xeGx_qTIoaIWEf-61" value="12" style="ellipse;whiteSpace=wrap;html=1;aspect=fixed;" vertex="1" parent="WIyWlLk6GJQsqaUBKTNV-1">
          <mxGeometry x="585" y="530" width="40" height="40" as="geometry" />
        </mxCell>
        <mxCell id="q5D6j6xeGx_qTIoaIWEf-62" value="13" style="ellipse;whiteSpace=wrap;html=1;aspect=fixed;" vertex="1" parent="WIyWlLk6GJQsqaUBKTNV-1">
          <mxGeometry x="665" y="530" width="40" height="40" as="geometry" />
        </mxCell>
        <mxCell id="q5D6j6xeGx_qTIoaIWEf-63" value="" style="endArrow=classic;html=1;rounded=0;" edge="1" parent="WIyWlLk6GJQsqaUBKTNV-1">
          <mxGeometry width="50" height="50" relative="1" as="geometry">
            <mxPoint x="215" y="530" as="sourcePoint" />
            <mxPoint x="265" y="480" as="targetPoint" />
          </mxGeometry>
        </mxCell>
        <mxCell id="q5D6j6xeGx_qTIoaIWEf-64" value="" style="endArrow=classic;html=1;rounded=0;exitX=0.75;exitY=1.025;exitDx=0;exitDy=0;exitPerimeter=0;" edge="1" parent="WIyWlLk6GJQsqaUBKTNV-1" source="q5D6j6xeGx_qTIoaIWEf-46">
          <mxGeometry width="50" height="50" relative="1" as="geometry">
            <mxPoint x="215" y="680" as="sourcePoint" />
            <mxPoint x="265" y="630" as="targetPoint" />
          </mxGeometry>
        </mxCell>
        <mxCell id="q5D6j6xeGx_qTIoaIWEf-65" value="" style="endArrow=classic;html=1;rounded=0;" edge="1" parent="WIyWlLk6GJQsqaUBKTNV-1" target="q5D6j6xeGx_qTIoaIWEf-55">
          <mxGeometry width="50" height="50" relative="1" as="geometry">
            <mxPoint x="295" y="610" as="sourcePoint" />
            <mxPoint x="345" y="560" as="targetPoint" />
          </mxGeometry>
        </mxCell>
        <mxCell id="q5D6j6xeGx_qTIoaIWEf-66" value="" style="endArrow=classic;html=1;rounded=0;entryX=0;entryY=1;entryDx=0;entryDy=0;" edge="1" parent="WIyWlLk6GJQsqaUBKTNV-1" target="q5D6j6xeGx_qTIoaIWEf-57">
          <mxGeometry width="50" height="50" relative="1" as="geometry">
            <mxPoint x="385" y="630" as="sourcePoint" />
            <mxPoint x="439" y="580" as="targetPoint" />
          </mxGeometry>
        </mxCell>
        <mxCell id="q5D6j6xeGx_qTIoaIWEf-67" value="" style="endArrow=classic;html=1;rounded=0;exitX=1;exitY=0.5;exitDx=0;exitDy=0;entryX=0;entryY=0;entryDx=0;entryDy=0;" edge="1" parent="WIyWlLk6GJQsqaUBKTNV-1" source="q5D6j6xeGx_qTIoaIWEf-55" target="q5D6j6xeGx_qTIoaIWEf-57">
          <mxGeometry width="50" height="50" relative="1" as="geometry">
            <mxPoint x="405" y="520" as="sourcePoint" />
            <mxPoint x="455" y="470" as="targetPoint" />
          </mxGeometry>
        </mxCell>
        <mxCell id="q5D6j6xeGx_qTIoaIWEf-68" value="" style="endArrow=classic;html=1;rounded=0;exitX=1;exitY=1;exitDx=0;exitDy=0;entryX=0;entryY=0;entryDx=0;entryDy=0;" edge="1" parent="WIyWlLk6GJQsqaUBKTNV-1" source="q5D6j6xeGx_qTIoaIWEf-48" target="q5D6j6xeGx_qTIoaIWEf-56">
          <mxGeometry width="50" height="50" relative="1" as="geometry">
            <mxPoint x="325" y="620" as="sourcePoint" />
            <mxPoint x="375" y="570" as="targetPoint" />
          </mxGeometry>
        </mxCell>
        <mxCell id="q5D6j6xeGx_qTIoaIWEf-69" value="" style="endArrow=classic;html=1;rounded=0;entryX=0;entryY=0.5;entryDx=0;entryDy=0;" edge="1" parent="WIyWlLk6GJQsqaUBKTNV-1" target="q5D6j6xeGx_qTIoaIWEf-58">
          <mxGeometry width="50" height="50" relative="1" as="geometry">
            <mxPoint x="455" y="530" as="sourcePoint" />
            <mxPoint x="505" y="480" as="targetPoint" />
          </mxGeometry>
        </mxCell>
        <mxCell id="q5D6j6xeGx_qTIoaIWEf-70" value="" style="endArrow=classic;html=1;rounded=0;exitX=1;exitY=0.5;exitDx=0;exitDy=0;entryX=0;entryY=1;entryDx=0;entryDy=0;" edge="1" parent="WIyWlLk6GJQsqaUBKTNV-1" source="q5D6j6xeGx_qTIoaIWEf-59" target="q5D6j6xeGx_qTIoaIWEf-61">
          <mxGeometry width="50" height="50" relative="1" as="geometry">
            <mxPoint x="545" y="610" as="sourcePoint" />
            <mxPoint x="585" y="570" as="targetPoint" />
          </mxGeometry>
        </mxCell>
        <mxCell id="q5D6j6xeGx_qTIoaIWEf-71" value="" style="endArrow=classic;html=1;rounded=0;entryX=0;entryY=0.5;entryDx=0;entryDy=0;" edge="1" parent="WIyWlLk6GJQsqaUBKTNV-1" target="q5D6j6xeGx_qTIoaIWEf-59">
          <mxGeometry width="50" height="50" relative="1" as="geometry">
            <mxPoint x="455" y="570" as="sourcePoint" />
            <mxPoint x="505" y="520" as="targetPoint" />
          </mxGeometry>
        </mxCell>
        <mxCell id="q5D6j6xeGx_qTIoaIWEf-72" value="" style="endArrow=classic;html=1;rounded=0;entryX=0;entryY=0;entryDx=0;entryDy=0;exitX=1;exitY=0.5;exitDx=0;exitDy=0;" edge="1" parent="WIyWlLk6GJQsqaUBKTNV-1" source="q5D6j6xeGx_qTIoaIWEf-58" target="q5D6j6xeGx_qTIoaIWEf-61">
          <mxGeometry width="50" height="50" relative="1" as="geometry">
            <mxPoint x="575" y="500" as="sourcePoint" />
            <mxPoint x="625" y="450" as="targetPoint" />
          </mxGeometry>
        </mxCell>
        <mxCell id="q5D6j6xeGx_qTIoaIWEf-73" value="&lt;font style=&quot;font-size: 9px;&quot;&gt;0 - 0 = 0&lt;/font&gt;" style="text;html=1;resizable=0;autosize=1;align=center;verticalAlign=middle;points=[];fillColor=none;strokeColor=none;rounded=0;" vertex="1" parent="WIyWlLk6GJQsqaUBKTNV-1">
          <mxGeometry x="130" y="510" width="60" height="30" as="geometry" />
        </mxCell>
        <mxCell id="q5D6j6xeGx_qTIoaIWEf-74" value="&lt;div&gt;min(57 - 57, 96 - 57,&lt;/div&gt;&lt;div&gt;&amp;nbsp;103 - 57) = 0&lt;/div&gt;" style="text;html=1;resizable=0;autosize=1;align=center;verticalAlign=middle;points=[];fillColor=none;strokeColor=none;rounded=0;fontSize=8;rotation=-45;" vertex="1" parent="WIyWlLk6GJQsqaUBKTNV-1">
          <mxGeometry x="180" y="475" width="90" height="30" as="geometry" />
        </mxCell>
        <mxCell id="q5D6j6xeGx_qTIoaIWEf-76" value="&lt;font style=&quot;font-size: 9px;&quot;&gt;120 - 24 = 96&lt;/font&gt;" style="text;html=1;resizable=0;autosize=1;align=center;verticalAlign=middle;points=[];fillColor=none;strokeColor=none;rounded=0;fontSize=8;" vertex="1" parent="WIyWlLk6GJQsqaUBKTNV-1">
          <mxGeometry x="285" y="520" width="80" height="20" as="geometry" />
        </mxCell>
        <mxCell id="q5D6j6xeGx_qTIoaIWEf-77" value="&lt;font style=&quot;font-size: 9px;&quot;&gt;min(89 - 32, 89 - 18) = 57&lt;/font&gt;" style="text;html=1;resizable=0;autosize=1;align=center;verticalAlign=middle;points=[];fillColor=none;strokeColor=none;rounded=0;fontSize=8;" vertex="1" parent="WIyWlLk6GJQsqaUBKTNV-1">
          <mxGeometry x="255" y="430" width="130" height="20" as="geometry" />
        </mxCell>
        <mxCell id="q5D6j6xeGx_qTIoaIWEf-78" value="&lt;font style=&quot;font-size: 9px;&quot;&gt;min(127 - 24, 127 - 18) = 103&lt;/font&gt;" style="text;html=1;resizable=0;autosize=1;align=center;verticalAlign=middle;points=[];fillColor=none;strokeColor=none;rounded=0;fontSize=8;" vertex="1" parent="WIyWlLk6GJQsqaUBKTNV-1">
          <mxGeometry x="250" y="650" width="140" height="20" as="geometry" />
        </mxCell>
        <mxCell id="q5D6j6xeGx_qTIoaIWEf-79" value="&lt;div&gt;148 - 59 = 89&lt;/div&gt;" style="text;html=1;resizable=0;autosize=1;align=center;verticalAlign=middle;points=[];fillColor=none;strokeColor=none;rounded=0;fontSize=9;rotation=55;" vertex="1" parent="WIyWlLk6GJQsqaUBKTNV-1">
          <mxGeometry x="380" y="480" width="80" height="20" as="geometry" />
        </mxCell>
        <mxCell id="q5D6j6xeGx_qTIoaIWEf-80" value="&lt;div&gt;min(172 - 24, 180 - 24)&lt;/div&gt;&lt;div&gt;= 148&lt;/div&gt;" style="text;html=1;resizable=0;autosize=1;align=center;verticalAlign=middle;points=[];fillColor=none;strokeColor=none;rounded=0;fontSize=9;rotation=-50;" vertex="1" parent="WIyWlLk6GJQsqaUBKTNV-1">
          <mxGeometry x="420" y="440" width="120" height="40" as="geometry" />
        </mxCell>
        <mxCell id="q5D6j6xeGx_qTIoaIWEf-81" value="148 + 24 = 172" style="text;html=1;resizable=0;autosize=1;align=center;verticalAlign=middle;points=[];fillColor=none;strokeColor=none;rounded=0;fontSize=9;rotation=45;" vertex="1" parent="WIyWlLk6GJQsqaUBKTNV-1">
          <mxGeometry x="425" y="620" width="90" height="20" as="geometry" />
        </mxCell>
        <mxCell id="q5D6j6xeGx_qTIoaIWEf-82" value="&lt;div&gt;207 - 35 = 172&lt;/div&gt;&lt;div&gt;&lt;br&gt;&lt;/div&gt;" style="text;html=1;resizable=0;autosize=1;align=center;verticalAlign=middle;points=[];fillColor=none;strokeColor=none;rounded=0;fontSize=9;rotation=50;" vertex="1" parent="WIyWlLk6GJQsqaUBKTNV-1">
          <mxGeometry x="535" y="470" width="80" height="40" as="geometry" />
        </mxCell>
        <mxCell id="q5D6j6xeGx_qTIoaIWEf-83" value="213 - 6 = 207" style="text;html=1;resizable=0;autosize=1;align=center;verticalAlign=middle;points=[];fillColor=none;strokeColor=none;rounded=0;fontSize=9;" vertex="1" parent="WIyWlLk6GJQsqaUBKTNV-1">
          <mxGeometry x="605" y="570" width="80" height="20" as="geometry" />
        </mxCell>
        <mxCell id="q5D6j6xeGx_qTIoaIWEf-84" value="&lt;div&gt;207 - 27 = 180&lt;/div&gt;&lt;div&gt;&lt;br&gt;&lt;/div&gt;" style="text;html=1;resizable=0;autosize=1;align=center;verticalAlign=middle;points=[];fillColor=none;strokeColor=none;rounded=0;fontSize=9;rotation=-55;" vertex="1" parent="WIyWlLk6GJQsqaUBKTNV-1">
          <mxGeometry x="545" y="610" width="80" height="40" as="geometry" />
        </mxCell>
        <mxCell id="q5D6j6xeGx_qTIoaIWEf-85" value="&lt;div&gt;148 - 21 = 127&lt;/div&gt;" style="text;html=1;resizable=0;autosize=1;align=center;verticalAlign=middle;points=[];fillColor=none;strokeColor=none;rounded=0;fontSize=9;rotation=-55;" vertex="1" parent="WIyWlLk6GJQsqaUBKTNV-1">
          <mxGeometry x="374" y="610" width="80" height="20" as="geometry" />
        </mxCell>
        <mxCell id="q5D6j6xeGx_qTIoaIWEf-86" value="&lt;div&gt;&lt;font style=&quot;font-size: 9px;&quot;&gt;148 - 28 = 120&lt;/font&gt;&lt;/div&gt;" style="text;html=1;resizable=0;autosize=1;align=center;verticalAlign=middle;points=[];fillColor=none;strokeColor=none;rounded=0;fontSize=8;" vertex="1" parent="WIyWlLk6GJQsqaUBKTNV-1">
          <mxGeometry x="355" y="515" width="80" height="20" as="geometry" />
        </mxCell>
        <mxCell id="q5D6j6xeGx_qTIoaIWEf-87" value="" style="edgeStyle=orthogonalEdgeStyle;rounded=0;orthogonalLoop=1;jettySize=auto;html=1;" edge="1" parent="WIyWlLk6GJQsqaUBKTNV-1" source="q5D6j6xeGx_qTIoaIWEf-88" target="q5D6j6xeGx_qTIoaIWEf-90">
          <mxGeometry relative="1" as="geometry" />
        </mxCell>
        <mxCell id="q5D6j6xeGx_qTIoaIWEf-88" value="1" style="ellipse;whiteSpace=wrap;html=1;aspect=fixed;" vertex="1" parent="WIyWlLk6GJQsqaUBKTNV-1">
          <mxGeometry x="90" y="950" width="40" height="40" as="geometry" />
        </mxCell>
        <mxCell id="q5D6j6xeGx_qTIoaIWEf-90" value="2" style="ellipse;whiteSpace=wrap;html=1;aspect=fixed;" vertex="1" parent="WIyWlLk6GJQsqaUBKTNV-1">
          <mxGeometry x="170" y="950" width="40" height="40" as="geometry" />
        </mxCell>
        <mxCell id="q5D6j6xeGx_qTIoaIWEf-92" value="4" style="ellipse;whiteSpace=wrap;html=1;aspect=fixed;" vertex="1" parent="WIyWlLk6GJQsqaUBKTNV-1">
          <mxGeometry x="250" y="950" width="40" height="40" as="geometry" />
        </mxCell>
        <mxCell id="q5D6j6xeGx_qTIoaIWEf-94" value="5" style="ellipse;whiteSpace=wrap;html=1;aspect=fixed;" vertex="1" parent="WIyWlLk6GJQsqaUBKTNV-1">
          <mxGeometry x="250" y="1030" width="40" height="40" as="geometry" />
        </mxCell>
        <mxCell id="q5D6j6xeGx_qTIoaIWEf-95" value="" style="edgeStyle=orthogonalEdgeStyle;rounded=0;orthogonalLoop=1;jettySize=auto;html=1;" edge="1" parent="WIyWlLk6GJQsqaUBKTNV-1" source="q5D6j6xeGx_qTIoaIWEf-96" target="q5D6j6xeGx_qTIoaIWEf-99">
          <mxGeometry relative="1" as="geometry" />
        </mxCell>
        <mxCell id="q5D6j6xeGx_qTIoaIWEf-96" value="3" style="ellipse;whiteSpace=wrap;html=1;aspect=fixed;" vertex="1" parent="WIyWlLk6GJQsqaUBKTNV-1">
          <mxGeometry x="250" y="870" width="40" height="40" as="geometry" />
        </mxCell>
        <mxCell id="q5D6j6xeGx_qTIoaIWEf-98" value="6" style="ellipse;whiteSpace=wrap;html=1;aspect=fixed;" vertex="1" parent="WIyWlLk6GJQsqaUBKTNV-1">
          <mxGeometry x="330" y="950" width="40" height="40" as="geometry" />
        </mxCell>
        <mxCell id="q5D6j6xeGx_qTIoaIWEf-99" value="8" style="ellipse;whiteSpace=wrap;html=1;aspect=fixed;" vertex="1" parent="WIyWlLk6GJQsqaUBKTNV-1">
          <mxGeometry x="330" y="870" width="40" height="40" as="geometry" />
        </mxCell>
        <mxCell id="q5D6j6xeGx_qTIoaIWEf-100" value="7" style="ellipse;whiteSpace=wrap;html=1;aspect=fixed;" vertex="1" parent="WIyWlLk6GJQsqaUBKTNV-1">
          <mxGeometry x="330" y="1030" width="40" height="40" as="geometry" />
        </mxCell>
        <mxCell id="q5D6j6xeGx_qTIoaIWEf-101" value="9" style="ellipse;whiteSpace=wrap;html=1;aspect=fixed;" vertex="1" parent="WIyWlLk6GJQsqaUBKTNV-1">
          <mxGeometry x="410" y="950" width="40" height="40" as="geometry" />
        </mxCell>
        <mxCell id="q5D6j6xeGx_qTIoaIWEf-102" value="10" style="ellipse;whiteSpace=wrap;html=1;aspect=fixed;" vertex="1" parent="WIyWlLk6GJQsqaUBKTNV-1">
          <mxGeometry x="490" y="870" width="40" height="40" as="geometry" />
        </mxCell>
        <mxCell id="q5D6j6xeGx_qTIoaIWEf-103" value="11" style="ellipse;whiteSpace=wrap;html=1;aspect=fixed;" vertex="1" parent="WIyWlLk6GJQsqaUBKTNV-1">
          <mxGeometry x="490" y="1030" width="40" height="40" as="geometry" />
        </mxCell>
        <mxCell id="q5D6j6xeGx_qTIoaIWEf-104" value="" style="edgeStyle=orthogonalEdgeStyle;rounded=0;orthogonalLoop=1;jettySize=auto;html=1;" edge="1" parent="WIyWlLk6GJQsqaUBKTNV-1" source="q5D6j6xeGx_qTIoaIWEf-105" target="q5D6j6xeGx_qTIoaIWEf-106">
          <mxGeometry relative="1" as="geometry" />
        </mxCell>
        <mxCell id="q5D6j6xeGx_qTIoaIWEf-105" value="12" style="ellipse;whiteSpace=wrap;html=1;aspect=fixed;" vertex="1" parent="WIyWlLk6GJQsqaUBKTNV-1">
          <mxGeometry x="570" y="950" width="40" height="40" as="geometry" />
        </mxCell>
        <mxCell id="q5D6j6xeGx_qTIoaIWEf-106" value="13" style="ellipse;whiteSpace=wrap;html=1;aspect=fixed;" vertex="1" parent="WIyWlLk6GJQsqaUBKTNV-1">
          <mxGeometry x="650" y="950" width="40" height="40" as="geometry" />
        </mxCell>
        <mxCell id="q5D6j6xeGx_qTIoaIWEf-107" value="" style="endArrow=classic;html=1;rounded=0;" edge="1" parent="WIyWlLk6GJQsqaUBKTNV-1">
          <mxGeometry width="50" height="50" relative="1" as="geometry">
            <mxPoint x="200" y="950" as="sourcePoint" />
            <mxPoint x="250" y="900" as="targetPoint" />
          </mxGeometry>
        </mxCell>
        <mxCell id="q5D6j6xeGx_qTIoaIWEf-111" value="" style="endArrow=classic;html=1;rounded=0;exitX=1;exitY=0.5;exitDx=0;exitDy=0;entryX=0;entryY=0;entryDx=0;entryDy=0;" edge="1" parent="WIyWlLk6GJQsqaUBKTNV-1" source="q5D6j6xeGx_qTIoaIWEf-99" target="q5D6j6xeGx_qTIoaIWEf-101">
          <mxGeometry width="50" height="50" relative="1" as="geometry">
            <mxPoint x="390" y="940" as="sourcePoint" />
            <mxPoint x="440" y="890" as="targetPoint" />
          </mxGeometry>
        </mxCell>
        <mxCell id="q5D6j6xeGx_qTIoaIWEf-113" value="" style="endArrow=classic;html=1;rounded=0;entryX=0;entryY=0.5;entryDx=0;entryDy=0;" edge="1" parent="WIyWlLk6GJQsqaUBKTNV-1" target="q5D6j6xeGx_qTIoaIWEf-102">
          <mxGeometry width="50" height="50" relative="1" as="geometry">
            <mxPoint x="440" y="950" as="sourcePoint" />
            <mxPoint x="490" y="900" as="targetPoint" />
          </mxGeometry>
        </mxCell>
        <mxCell id="q5D6j6xeGx_qTIoaIWEf-116" value="" style="endArrow=classic;html=1;rounded=0;entryX=0;entryY=0;entryDx=0;entryDy=0;exitX=1;exitY=0.5;exitDx=0;exitDy=0;" edge="1" parent="WIyWlLk6GJQsqaUBKTNV-1" source="q5D6j6xeGx_qTIoaIWEf-102" target="q5D6j6xeGx_qTIoaIWEf-105">
          <mxGeometry width="50" height="50" relative="1" as="geometry">
            <mxPoint x="560" y="920" as="sourcePoint" />
            <mxPoint x="610" y="870" as="targetPoint" />
          </mxGeometry>
        </mxCell>
      </root>
    </mxGraphModel>
  </diagram>
</mxfile>
